# xmcd
#
# Track frame offsets: 
#        150
#        17510
#        33000
#        46800
#        61242
#        73656
#        89481
#        107412
#        120742
#        137216
#        157128
#        171791
#        190090
#
# Disc length: 2770 seconds
#
# Revision: 0
# Processed by: cddbd v1.5.2PL0 Copyright (c) Steve Scherf et al.
# Submitted via: ExactAudioCopyFreeDBPlugin 1.0
#
DISCID=a70ad00d
DTITLE=J T Blanton - Live From The Bullpen
DYEAR=1996
DGENRE=Country
TTITLE0=3 Feet Off The Floor
TTITLE1=Like I Will
TTITLE2=If The Good Lord's Willin'
TTITLE3=Long Neck Connected To The Beer Joint
TTITLE4=Revenooer Man
TTITLE5=Call Me Crazy
TTITLE6=Church Goin' Man
TTITLE7=Things That Go Twang In The Night
TTITLE8=Big Revival
TTITLE9=Ain't No Dancin' 
TTITLE10=Tryin' To Get To You
TTITLE11=Wild Oats
TTITLE12=Train Of Thought
EXTD=
EXTT0=
EXTT1=
EXTT2=
EXTT3=
EXTT4=
EXTT5=
EXTT6=
EXTT7=
EXTT8=
EXTT9=
EXTT10=
EXTT11=
EXTT12=
PLAYORDER=
